<mxfile host="app.diagrams.net" modified="2022-08-09T01:34:13.029Z" agent="5.0 (Windows)" etag="k5sgbOq-6Uh1lHxkaJQ7" version="20.2.3" type="github">
  <diagram id="TBybOJBKKDchgiWtlvlM" name="Page-1">
    <mxGraphModel dx="1422" dy="724" grid="1" gridSize="10" guides="1" tooltips="1" connect="1" arrows="1" fold="1" page="1" pageScale="1" pageWidth="827" pageHeight="1169" math="0" shadow="0">
      <root>
        <mxCell id="0" />
        <mxCell id="1" parent="0" />
        <mxCell id="arbC0aSzplzisCp50apI-24" value="" style="rounded=1;whiteSpace=wrap;html=1;fillStyle=cross-hatch;fillColor=#dae8fc;strokeColor=#6c8ebf;" parent="1" vertex="1">
          <mxGeometry x="69" y="90" width="710" height="420" as="geometry" />
        </mxCell>
        <mxCell id="arbC0aSzplzisCp50apI-23" value="" style="rounded=1;whiteSpace=wrap;html=1;fillColor=#FFCCE6;strokeColor=#b85450;fillStyle=hatch;gradientColor=none;" parent="1" vertex="1">
          <mxGeometry x="114" y="120" width="600" height="250" as="geometry" />
        </mxCell>
        <mxCell id="arbC0aSzplzisCp50apI-1" value="Core Product" style="whiteSpace=wrap;html=1;aspect=fixed;" parent="1" vertex="1">
          <mxGeometry x="389" y="150" width="80" height="80" as="geometry" />
        </mxCell>
        <mxCell id="arbC0aSzplzisCp50apI-2" value="Standard" style="rounded=1;whiteSpace=wrap;html=1;" parent="1" vertex="1">
          <mxGeometry x="144" y="270" width="120" height="60" as="geometry" />
        </mxCell>
        <mxCell id="arbC0aSzplzisCp50apI-3" value="Advanced" style="rounded=1;whiteSpace=wrap;html=1;" parent="1" vertex="1">
          <mxGeometry x="584" y="270" width="120" height="60" as="geometry" />
        </mxCell>
        <mxCell id="arbC0aSzplzisCp50apI-4" value="" style="edgeStyle=elbowEdgeStyle;elbow=horizontal;endArrow=classic;html=1;rounded=0;exitX=1;exitY=0.5;exitDx=0;exitDy=0;entryX=0.5;entryY=0;entryDx=0;entryDy=0;" parent="1" source="arbC0aSzplzisCp50apI-1" target="arbC0aSzplzisCp50apI-3" edge="1">
          <mxGeometry width="50" height="50" relative="1" as="geometry">
            <mxPoint x="534" y="190" as="sourcePoint" />
            <mxPoint x="584" y="140" as="targetPoint" />
            <Array as="points">
              <mxPoint x="644" y="230" />
            </Array>
          </mxGeometry>
        </mxCell>
        <mxCell id="arbC0aSzplzisCp50apI-5" value="" style="edgeStyle=elbowEdgeStyle;elbow=horizontal;endArrow=classic;html=1;rounded=0;exitX=0;exitY=0.5;exitDx=0;exitDy=0;entryX=0.5;entryY=0;entryDx=0;entryDy=0;" parent="1" source="arbC0aSzplzisCp50apI-1" target="arbC0aSzplzisCp50apI-2" edge="1">
          <mxGeometry width="50" height="50" relative="1" as="geometry">
            <mxPoint x="264" y="220" as="sourcePoint" />
            <mxPoint x="314" y="170" as="targetPoint" />
            <Array as="points">
              <mxPoint x="204" y="240" />
            </Array>
          </mxGeometry>
        </mxCell>
        <mxCell id="arbC0aSzplzisCp50apI-6" value="&lt;div&gt;Staff&lt;/div&gt;&lt;div&gt;Either&lt;/div&gt;&lt;div&gt;Or&lt;br&gt;&lt;/div&gt;" style="shape=hexagon;perimeter=hexagonPerimeter2;whiteSpace=wrap;html=1;fixedSize=1;" parent="1" vertex="1">
          <mxGeometry x="364" y="260" width="120" height="80" as="geometry" />
        </mxCell>
        <mxCell id="arbC0aSzplzisCp50apI-7" value="" style="endArrow=classic;html=1;rounded=0;entryX=0;entryY=0.5;entryDx=0;entryDy=0;" parent="1" source="arbC0aSzplzisCp50apI-6" target="arbC0aSzplzisCp50apI-3" edge="1">
          <mxGeometry width="50" height="50" relative="1" as="geometry">
            <mxPoint x="404" y="540" as="sourcePoint" />
            <mxPoint x="454" y="490" as="targetPoint" />
          </mxGeometry>
        </mxCell>
        <mxCell id="arbC0aSzplzisCp50apI-8" value="" style="endArrow=classic;html=1;rounded=0;entryX=1;entryY=0.5;entryDx=0;entryDy=0;exitX=0;exitY=0.5;exitDx=0;exitDy=0;" parent="1" source="arbC0aSzplzisCp50apI-6" target="arbC0aSzplzisCp50apI-2" edge="1">
          <mxGeometry width="50" height="50" relative="1" as="geometry">
            <mxPoint x="494" y="310" as="sourcePoint" />
            <mxPoint x="594" y="310" as="targetPoint" />
          </mxGeometry>
        </mxCell>
        <mxCell id="arbC0aSzplzisCp50apI-9" value="Payroll Module" style="rounded=0;whiteSpace=wrap;html=1;" parent="1" vertex="1">
          <mxGeometry x="144" y="390" width="120" height="60" as="geometry" />
        </mxCell>
        <mxCell id="arbC0aSzplzisCp50apI-10" value="Payroll module" style="rounded=0;whiteSpace=wrap;html=1;" parent="1" vertex="1">
          <mxGeometry x="584" y="390" width="120" height="60" as="geometry" />
        </mxCell>
        <mxCell id="arbC0aSzplzisCp50apI-14" value="&lt;div&gt;&lt;br&gt;&lt;/div&gt;&lt;div&gt;Payroll specialists&lt;/div&gt;&lt;div&gt;Work on both&lt;br&gt;&lt;/div&gt;" style="shape=hexagon;perimeter=hexagonPerimeter2;whiteSpace=wrap;html=1;fixedSize=1;" parent="1" vertex="1">
          <mxGeometry x="364" y="380" width="120" height="80" as="geometry" />
        </mxCell>
        <mxCell id="arbC0aSzplzisCp50apI-16" value="" style="endArrow=classic;html=1;rounded=0;entryX=0;entryY=0.5;entryDx=0;entryDy=0;exitX=1;exitY=0.5;exitDx=0;exitDy=0;" parent="1" source="arbC0aSzplzisCp50apI-14" target="arbC0aSzplzisCp50apI-10" edge="1">
          <mxGeometry width="50" height="50" relative="1" as="geometry">
            <mxPoint x="254" y="560" as="sourcePoint" />
            <mxPoint x="304" y="510" as="targetPoint" />
          </mxGeometry>
        </mxCell>
        <mxCell id="arbC0aSzplzisCp50apI-17" value="" style="endArrow=classic;html=1;rounded=0;exitX=0;exitY=0.5;exitDx=0;exitDy=0;" parent="1" source="arbC0aSzplzisCp50apI-14" edge="1">
          <mxGeometry width="50" height="50" relative="1" as="geometry">
            <mxPoint x="214" y="470" as="sourcePoint" />
            <mxPoint x="264" y="420" as="targetPoint" />
          </mxGeometry>
        </mxCell>
        <mxCell id="arbC0aSzplzisCp50apI-18" value="" style="endArrow=classic;html=1;rounded=0;exitX=0.5;exitY=1;exitDx=0;exitDy=0;" parent="1" source="arbC0aSzplzisCp50apI-3" edge="1">
          <mxGeometry width="50" height="50" relative="1" as="geometry">
            <mxPoint x="594" y="440" as="sourcePoint" />
            <mxPoint x="644" y="390" as="targetPoint" />
          </mxGeometry>
        </mxCell>
        <mxCell id="arbC0aSzplzisCp50apI-19" value="" style="endArrow=classic;html=1;rounded=0;" parent="1" source="arbC0aSzplzisCp50apI-2" target="arbC0aSzplzisCp50apI-9" edge="1">
          <mxGeometry width="50" height="50" relative="1" as="geometry">
            <mxPoint x="284" y="590" as="sourcePoint" />
            <mxPoint x="334" y="540" as="targetPoint" />
          </mxGeometry>
        </mxCell>
        <mxCell id="arbC0aSzplzisCp50apI-25" value="Developers Access" style="rounded=1;whiteSpace=wrap;html=1;fillStyle=cross-hatch;fillColor=#dae8fc;strokeColor=#6c8ebf;" parent="1" vertex="1">
          <mxGeometry x="40" y="560" width="250" height="110" as="geometry" />
        </mxCell>
        <mxCell id="arbC0aSzplzisCp50apI-26" value="Administrators Access" style="rounded=1;whiteSpace=wrap;html=1;fillColor=#FFCCE6;strokeColor=#b85450;fillStyle=hatch;gradientColor=none;" parent="1" vertex="1">
          <mxGeometry x="484" y="560" width="250" height="110" as="geometry" />
        </mxCell>
        <mxCell id="arbC0aSzplzisCp50apI-28" value="Access Model" style="text;html=1;strokeColor=none;fillColor=none;align=center;verticalAlign=middle;whiteSpace=wrap;rounded=0;fillStyle=cross-hatch;fontStyle=1;fontSize=19;" parent="1" vertex="1">
          <mxGeometry x="299" y="20" width="250" height="30" as="geometry" />
        </mxCell>
      </root>
    </mxGraphModel>
  </diagram>
</mxfile>
